# xmcd
#
# Track frame offsets:
# 150
# 13782
# 26468
# 42340
# 54696
# 64108
# 85745
# 96144
# 109246
# 124213
# 129773
# 142727
# 165588
# 176695
# 192789
# 211132
# 224068
# 243936
# 257351
# 272911
#
# Disc length: 3761 seconds
#
#
# Revision: 0
# Processed by: cddbd v1.5.1PL2 Copyright (c) Steve Scherf et al.
# Submitted via: FreeRIP 2.941 
#
DISCID=170eaf14
DTITLE=Waylon Jennings - 
DYEAR=1900
DGENRE=Country
TTITLE0=Amanda
TTITLE1=The Green Green Valley
TTITLE2=Take A Letter Maria
TTITLE3=Dim Lights, Thick Smoke (And Loud, Loud Music)
TTITLE4=I Love Little Baby Ducks
TTITLE5=Take It To The Limit
TTITLE6=You Can't Have Your Kate And Edith Too
TTITLE7=Dirt Road
TTITLE8=Ghost Riders In The Sky
TTITLE9=Get Along Home Cindy (1959)
TTITLE10=Burning Bridges
TTITLE11=The Last Steam EngineTrain(Paririe Home Companion)
TTITLE12=Hello Vietnam
TTITLE13=Just To Be Your Man
TTITLE14=Slow Dancing Swayin To The Music
TTITLE15=The Thief Upon The Tree
TTITLE16=Angels Among Use
TTITLE17=Life's Railway To Heaven
TTITLE18=Coca Cola Cowboy
TTITLE19=Easy Come Easy Go
EXTD=
EXTT0=
EXTT1=
EXTT2=
EXTT3=
EXTT4=
EXTT5=
EXTT6=
EXTT7=
EXTT8=
EXTT9=
EXTT10=
EXTT11=
EXTT12=
EXTT13=
EXTT14=
EXTT15=
EXTT16=
EXTT17=
EXTT18=
EXTT19=
PLAYORDER=
